<?xml version="1.0" ?><svg viewBox="0 0 512 512" xmlns="http://www.w3.org/2000/svg"><g id="a"/><g id="b"/><g id="c"><g><path d="M491.95996,335.43457l-5.38379-37.68555c-1.81543-12.70898-10.34814-23.56641-22.26807-28.33398l-20.30811-8.12305v-19.63477l.42041-.42041c3.14758,7.19238,10.31952,12.07861,18.44043,12.07861,11.10498,0,20.13916-9.03418,20.13916-20.13867,0-3.83789-1.08252-7.54492-3.09668-10.73535,2.63379-3.45898,4.09668-7.71875,4.09668-12.12598,0-6.78223-3.44922-13.00586-8.92871-16.65723,1.46924-3.02051,2.23193-6.33496,2.23193-9.78223,0-12.37305-10.06592-22.43848-22.43896-22.43848-2.31152,0-4.59961,.35645-6.78174,1.04688-3.56104-8.62207-12.03418-14.48438-21.69482-14.48438-8.71729,0-16.64209,4.89648-20.67578,12.35938-3.03369-1.3457-6.32324-2.04395-9.71191-2.04395-13.23389,0-24,10.7666-24,24,0,3.62402,.83203,7.20312,2.39258,10.44043-6.30713,3.42871-10.39258,10.06641-10.39258,17.55957,0,4.69922,1.65381,9.21289,4.61572,12.7793-1.0625,2.55664-1.61572,5.31055-1.61572,8.10938,0,11.64062,9.47021,21.11133,21.11084,21.11133,6.17633,0,11.90503-2.65186,15.88916-7.22241v16.19897l-20.30859,8.12305c-7.93475,3.17432-14.46289,9.14746-18.42834,16.59912-23.76556-34.98535-63.87451-58.01416-109.26306-58.01416-43.74463,0-82.58008,21.39502-106.612,54.2644-4.39758-6.23682-10.6427-10.89893-18.00421-13.35327l-23.38379-7.79395v-15.20068c9.64056-6.46582,16-17.46143,16-29.9165v-22.34326l14.82861-14.82861c.84717-.84668,1.27002-2.0293,1.15186-3.22266-.11816-1.19238-.76465-2.26855-1.76172-2.93359l-27.59863-18.39941c-13.74072-9.16016-31.49854-9.16016-45.24023,0l-27.59863,18.39941c-.99707,.66504-1.64355,1.74121-1.76172,2.93359-.11816,1.19336,.30469,2.37598,1.15186,3.22266l14.82861,14.82861v22.34326c0,12.45508,6.35944,23.45068,16,29.9165v15.20068l-23.38428,7.79395c-14.72363,4.90918-24.61572,18.63379-24.61572,34.15332v32.93555h8v-32.93555c0-7.90894,3.31848-15.20459,8.81769-20.37891l24.96356,16.64258c.67676,.45117,1.44922,.67188,2.21729,.67188,1.03271,0,2.05664-.39844,2.83008-1.17188l21.17139-21.1709,21.17139,21.1709c1.34863,1.34863,3.46094,1.55762,5.04736,.5l24.98364-16.65576c2.07648,1.95752,3.85236,4.24341,5.26929,6.79688-12.95721,20.4165-20.47168,44.61133-20.47168,70.53076,0,72.78516,59.21484,132,132,132s132-59.21484,132-132c0-17.83789-3.56415-34.85669-10.00537-50.39258,12.737,3.81152,22.80615,14.08789,26.125,27.3623l3.88037-.96973,3.92236,.78418,.90088-4.50488c4.39355-21.96777,16.44775-41.77344,33.94141-55.76855l4.58057-3.66479,9.99219,3.99683c2.54669,1.01855,4.88525,2.40527,6.98065,4.07056-20.7207,11.13647-35.58911,31.04688-40.24042,54.30249l7.84473,1.56836c4.32227-21.61108,18.45807-40.0105,38.07532-49.80518,2.41254,3.50415,4.03894,7.56348,4.65857,11.90088l.32446,2.27124c-15.62891,4.05176-26.98071,18.37817-26.98071,34.84888h8c0-12.50879,8.41254-23.4292,20.12048-26.87085l3.91956,27.43628,7.91992-1.13086ZM69.81738,160.92871c11.04541-7.3623,25.31982-7.3623,36.36523,0l23.53906,15.69336-10.97754,10.97705c-20.16632-4.67847-41.32196-4.67847-61.48828,0l-10.97754-10.97705,23.53906-15.69336Zm-9.81738,55.07129v-20.83691c18.38379-4.11914,37.61621-4.11914,56,0v20.83691c0,15.43945-12.56055,28-28,28s-28-12.56055-28-28Zm28,36c4.20679,0,8.24414-.73218,12-2.06421v12.29883c-3.35498,2.83789-7.55542,4.39331-12,4.39331s-8.64502-1.55542-12-4.39331v-12.29883c3.75586,1.33203,7.79321,2.06421,12,2.06421Zm-24.50977,38.85254l-19.55261-13.03516c1.03558-.49365,2.09814-.94653,3.20789-1.31641l23.90222-7.96704c2.86292,2.37207,6.1499,4.08911,9.67639,5.08521l-17.23389,17.2334Zm49.01953,0l-17.23389-17.2334c3.52643-.99609,6.81348-2.71313,9.67639-5.08521l23.90173,7.96704c1.1098,.36987,2.18274,.81152,3.22327,1.30688l-19.5675,13.04468Zm331.49023-66.85254c0,4.09082-1.59277,7.93652-4.48486,10.82812l-4.68701,4.68652c-2.89258,2.89258-6.73779,4.48535-10.82812,4.48535s-7.93555-1.59277-10.82861-4.48633l-4.68604-4.68457c-2.89258-2.89258-4.48535-6.73828-4.48535-10.8291v-14.70215c0-8.62207,5.49561-16.24609,13.67529-18.97266h.00049c2.03906-.68066,4.18164-1.02051,6.32422-1.02051s4.28516,.34082,6.32471,1.02051c8.17969,2.72656,13.67529,10.35059,13.67529,18.97266v14.70215Zm-32,24.68408c3.58698,2.16138,7.70459,3.31592,12,3.31592s8.41315-1.15454,12-3.31567v13.55029c-3.35498,2.83789-7.55542,4.39331-12,4.39331s-8.64502-1.55542-12-4.39331v-13.55054Zm-23.88916-4.36865c-7.22949,0-13.11084-5.88184-13.11084-13.11133,0-2.39844,.65234-4.74219,1.88574-6.77832,1.03027-1.70117,.65234-3.89258-.87158-5.15332-2.55273-2.27832-4.01416-5.53613-4.01416-8.95703,0-5.60059,3.7998-10.4043,9.24023-11.68066,1.3335-.31348,2.41406-1.28711,2.86377-2.58008,.4502-1.29395,.20703-2.72754-.64453-3.80078-2.26318-2.85254-3.45947-6.28906-3.45947-9.93848,0-8.82227,7.17773-16,16-16,3.37744,0,6.60596,1.03906,9.33594,3.00391,1.05615,.76074,2.41504,.95898,3.64502,.53418,1.22998-.42578,2.17578-1.42285,2.53564-2.67285,1.896-6.58301,8.01123-11.18066,14.87109-11.18066,7.45752,0,13.8418,5.29688,15.20898,12.60547,.06348,.38965,.18604,.77637,.37158,1.14746,.89014,1.78027,2.95361,2.63184,4.84277,2.00586,.31201-.10449,.60352-.24316,.87109-.41211,2.1748-1.24902,4.65527-1.90918,7.18213-1.90918,7.96191,0,14.43896,6.47754,14.43896,14.43848,0,3.22656-1.03662,6.27051-2.99902,8.81152-.24171,.29102-.44531,.62207-.60107,.98633-.83008,1.94531-.00098,4.20215,1.89111,5.14844,.1626,.08105,.32764,.14941,.49561,.20703,4.73389,1.71582,7.91016,6.24414,7.91016,11.28613,0,3.40039-1.45166,6.6543-3.98242,8.92871l-.01758,.01562c-1.63086,1.4834-1.75488,4.00684-.27686,5.6416,.07861,.08789,.16016,.16992,.24463,.24805,1.95752,2.21875,3.03223,5.05762,3.03223,8.02734,0,6.69336-5.4458,12.13867-12.13916,12.13867-5.80225,0-10.81348-4.12598-11.9043-9.74414l-.54663-3.09229c1.04004-2.66724,1.59009-5.53003,1.59009-8.479v-14.70215c0-12.07031-7.69434-22.74512-19.14551-26.5625-5.70996-1.90234-11.99951-1.90234-17.7085,0h-.00049c-11.45068,3.81836-19.14551,14.49219-19.14551,26.5625v14.70215c0,4.69922,1.38239,9.1853,3.95233,12.99683l-.73798,1.18481c-2.4209,3.84082-6.57129,6.13379-11.10352,6.13379Zm-132.11084,239.68457c-68.37402,0-124-55.62598-124-124s55.62598-124,124-124,124,55.62598,124,124-55.62598,124-124,124Zm117.81128-183.49219c-1.07513-2.12036-2.20172-4.21021-3.38605-6.26318,1.90192-5.88135,5.73718-10.97705,10.77515-14.46021l12.16241,7.29761c8.87634,5.32593,15.23425,14.07324,17.60297,24.12085-1.58069,3.7854-2.94568,7.66699-4.07001,11.63452-6.99072-11.9126-19.08044-20.25854-33.08447-22.32959Zm67.95532-30.24316c-10.61279,8.48975-19.37482,18.95532-25.87134,30.69849-3.85901-8.55249-10.25604-15.84448-18.41675-20.74048l-7.70593-4.62378,17.40045-6.96021c4.73956,3.87891,10.62103,5.98926,16.82697,5.98926s12.0874-2.11035,16.82697-5.98926l1.98126,.79248-1.04163,.8335Z"/><path d="M200.53662,96.11133c1.9585,4.89746,1.72949,10.41211-.62939,15.12988-7.83252,15.66602-9.80713,33.65039-5.55908,50.64258l.55536,2.22144c-4.99811,4.95923-8.46802,11.3208-9.8952,18.45728l-4.93066,24.65332,7.84473,1.56836,4.93066-24.65332c1.70654-8.5332,7.1499-15.66016,14.93457-19.55176l15.10919-7.55469,29.97968,37.47461c.75928,.94824,1.9082,1.50098,3.12354,1.50098s2.36426-.55273,3.12354-1.50098l29.9798-37.47461,15.10956,7.55469c7.78418,3.8916,13.22754,11.01855,14.93408,19.55176l4.93066,24.65332,7.84473-1.56836-4.93066-24.65332c-1.42719-7.13672-4.89709-13.49829-9.89514-18.45752l.5553-2.22119c4.24805-16.99219,2.27344-34.97656-5.55908-50.64258-2.35889-4.71777-2.58789-10.23242-.62939-15.12988,3.31152-8.27832,3.14648-17.32129-.46533-25.46289-2.4693-5.56689-6.31714-10.21631-11.15485-13.5918,.09338-.3396,.1568-.69043,.1568-1.05664,0-19.85059-16.14941-36-36-36h-16c-19.85059,0-36,16.14941-36,36,0,.36621,.06348,.71729,.15686,1.05664-4.83704,3.375-8.68451,8.02368-11.15393,13.58984-3.61279,8.1416-3.77832,17.18555-.46631,25.46484Zm27.46338-33.64844c9.29468,1.77832,18.64551,2.67773,28,2.67773,9.35272,0,18.70746-.89941,28-2.67773v17.53711c0,4.5752-2.5415,8.6875-6.63379,10.73242l-16.00049,8.00098c-3.35889,1.67969-7.37109,1.68066-10.73193-.00098l-16.00049-8c-4.0918-2.04492-6.6333-6.15723-6.6333-10.73242v-17.53711Zm3.05566,35.42578l15.99951,7.99902c2.80078,1.40137,5.87256,2.10156,8.94482,2.10156,3.07178,0,6.14453-.7002,8.94434-2.10059l15.99951-8c1.00037-.5,1.93762-1.08228,2.82159-1.72217-1.15106,8.97217-6.62903,16.79346-14.88361,20.92041l-7.51611,3.75781c-3.35889,1.67969-7.37158,1.68066-10.73242-.00098l-7.51465-3.75684c-8.25494-4.12695-13.73297-11.948-14.88409-20.92017,.88385,.63965,1.82092,1.22192,2.82111,1.72192Zm24.94434,56.4541l-12-11.99951v-15.87134l3.05518,1.5271c2.80078,1.40137,5.87256,2.10156,8.94482,2.10156,3.07178,0,6.14404-.7002,8.94385-2.10059l3.05615-1.52759v15.87085l-12,11.99951Zm-16.78937-5.47534l12.78937,12.78931v18.93994l-21.78503-27.23145,8.99567-4.4978Zm20.78937,31.72925v-18.93994l12.78937-12.78931,8.99573,4.4978-21.7851,27.23145Zm44.03564-87.45605c-2.80664,7.01758-2.47803,14.91895,.90185,21.67871,6.79389,13.58765,8.62537,29.1333,5.22724,43.91602-.77344-.46094-1.55994-.90527-2.37421-1.3125l-31.79053-15.89453v-19.33691c9.95349-6.48462,16-17.46973,16-29.56641v-30.93042c5.19281,2.54419,9.29193,6.802,11.68555,12.19702,2.72949,6.1543,2.854,12.99023,.3501,19.24902ZM248,28h16c14.34326,0,26.20215,10.83984,27.81348,24.75781l-8.13232,1.62695c-18.36816,3.67383-36.99463,3.67383-55.36279,0l-8.13184-1.62695c1.61133-13.91797,13.47021-24.75781,27.81348-24.75781Zm-39.68457,45.89062c2.39362-5.39502,6.49255-9.65137,11.68457-12.19556v30.92993c0,12.09644,6.04633,23.08154,16,29.56616v19.33716l-31.79004,15.89453c-.81439,.40723-1.60107,.85156-2.37469,1.31274-3.39813-14.78296-1.56665-30.32837,5.22723-43.91626,3.37989-6.75977,3.7085-14.66113,.90186-21.67871-2.50391-6.25977-2.37939-13.09668,.35107-19.25Z"/><path d="M244,344l-.00049-78.67285c0-1.17676-.51807-2.29395-1.41602-3.05371s-2.08447-1.08301-3.24609-.8916c-23.04736,3.86719-44.14453,15.83691-59.40527,33.70312-15.43311,18.06738-23.93213,41.12109-23.93213,64.91504,0,18.41992,5.05078,36.42383,14.60645,52.06445,.63965,1.04688,1.72314,1.74219,2.94092,1.88672,.15771,.01953,.31592,.02832,.47266,.02832,1.05469,0,2.07373-.41699,2.82861-1.17188l65.97998-65.97949c.75-.75,1.17139-1.76758,1.17139-2.82812Zm-69.11133,59.4541c-7.1377-13.30664-10.88867-28.22461-10.88867-43.4541,0-21.89062,7.81836-43.09961,22.01514-59.71973,13.00586-15.22656,30.61426-25.79688,49.98438-30.09961l.00049,72.16211-61.11133,61.11133Z"/><path d="M272.64453,261.37891c-1.16113-.19043-2.34814,.13184-3.24561,.89258-.89795,.75977-1.41602,1.87695-1.41553,3.05371l.0166,78.67578c0,1.06055,.42188,2.07715,1.17139,2.82715l65.98047,65.97852c.75488,.75488,1.77393,1.17188,2.82812,1.17188,.15723,0,.31543-.00879,.47314-.02832,1.21777-.14453,2.30127-.83984,2.94092-1.88672,9.55518-15.63965,14.60596-33.64355,14.60596-52.06348,0-23.79688-8.50098-46.85352-23.93751-64.92188-15.26464-17.86816-36.36669-29.83594-59.41796-33.69922Zm64.46729,142.07422l-61.1123-61.11035-.01514-72.16602c19.37354,4.2998,36.98633,14.87012,49.99561,30.09766,14.19971,16.62109,22.02002,37.83203,22.02002,59.72559,0,15.22949-3.75098,30.14746-10.88818,43.45312Z"/><path d="M241.53027,388.30469c-1.49414-.61914-3.21533-.27637-4.35889,.86719l-43.41064,43.41309c-.80762,.80762-1.23145,1.92285-1.16455,3.06348,.06738,1.13965,.61865,2.19727,1.51562,2.90527,13.14404,10.36914,28.78662,17.30762,45.23682,20.06543,.22021,.03613,.44092,.05469,.66113,.05469,.93896,0,1.85693-.33105,2.58447-.94727,.89795-.75977,1.41553-1.87695,1.41553-3.05371l-.00977-62.67383c-.00049-1.61719-.9751-3.07617-2.46973-3.69434Zm-38.85156,46.67578l33.32275-33.3252,.00732,48.16504c-11.9502-2.6543-23.32324-7.71777-33.33008-14.83984Z"/><path d="M274.82861,389.17188c-1.14404-1.14355-2.86377-1.48535-4.35938-.86719-1.49463,.61914-2.46924,2.07715-2.46924,3.69531l.00049,62.67285c0,1.17676,.51807,2.29395,1.41602,3.05371,.72754,.61523,1.64502,.94629,2.58398,.94629,.22021,0,.44141-.01855,.66211-.05469,16.44678-2.75977,32.08545-9.69824,45.22607-20.06445,.89697-.70801,1.44824-1.76562,1.51562-2.90625,.06689-1.13965-.35693-2.25488-1.16455-3.0625l-43.41113-43.41309Zm1.17188,60.64746l-.00049-48.16211,33.32129,33.32324c-10.00244,7.11914-21.375,12.18262-33.3208,14.83887Z"/><path d="M200.9624,34.68652l-1.9248-7.76562c-63.44727,15.72656-118.03369,57.69531-149.7627,115.14551l7.00293,3.86719c30.65625-55.50684,83.3916-96.05566,144.68457-111.24707Z"/><path d="M44.97217,342.48145l-7.40137,3.03711c21.81201,53.16602,62.21826,96.5166,113.77637,122.06641l3.55176-7.16797c-49.81396-24.68555-88.85352-66.56934-109.92676-117.93555Z"/><path d="M357.10205,460.41602l3.55176,7.16797c52.71484-26.12207,93.58057-70.61719,115.06885-125.28711l-7.44531-2.92578c-20.76074,52.81738-60.24365,95.80566-111.17529,121.04492Z"/><path d="M455.72217,145.93359l7.00293-3.86719c-31.729-57.4502-86.31543-99.41895-149.7627-115.14551l-1.9248,7.76562c61.29297,15.19141,114.02832,55.74023,144.68457,111.24707Z"/></g></g><g id="d"/></svg>